<?xml version="1.0" encoding="utf-8" standalone="no"?>
<!DOCTYPE svg PUBLIC "-//W3C//DTD SVG 1.1//EN"
  "http://www.w3.org/Graphics/SVG/1.1/DTD/svg11.dtd">
<svg xmlns:xlink="http://www.w3.org/1999/xlink" width="568.8pt" height="568.8pt" viewBox="0 0 568.8 568.8" xmlns="http://www.w3.org/2000/svg" version="1.1">
 <metadata>
  <rdf:RDF xmlns:dc="http://purl.org/dc/elements/1.1/" xmlns:cc="http://creativecommons.org/ns#" xmlns:rdf="http://www.w3.org/1999/02/22-rdf-syntax-ns#">
   <cc:Work>
    <dc:type rdf:resource="http://purl.org/dc/dcmitype/StillImage"/>
    <dc:date>2025-09-06T14:21:31.465890</dc:date>
    <dc:format>image/svg+xml</dc:format>
    <dc:creator>
     <cc:Agent>
      <dc:title>Matplotlib v3.6.3, https://matplotlib.org/</dc:title>
     </cc:Agent>
    </dc:creator>
   </cc:Work>
  </rdf:RDF>
 </metadata>
 <defs>
  <style type="text/css">*{stroke-linejoin: round; stroke-linecap: butt}</style>
 </defs>
 <g id="figure_1">
  <g id="patch_1">
   <path d="M 0 568.8 
L 568.8 568.8 
L 568.8 0 
L 0 0 
L 0 568.8 
z
" style="fill: none; opacity: 0"/>
  </g>
  <g id="axes_1">
   <g id="patch_2">
    <path d="M 561.6 284.4 
C 561.6 247.99843 554.429684 211.950818 540.499406 178.320153 
C 526.569128 144.689487 506.149797 114.129798 480.41 88.39 
C 454.670202 62.650203 424.110513 42.230872 390.479847 28.300594 
C 356.849182 14.370316 320.80157 7.2 284.4 7.2 
C 247.99843 7.2 211.950818 14.370316 178.320153 28.300594 
C 144.689487 42.230872 114.129798 62.650203 88.39 88.39 
C 62.650203 114.129798 42.230872 144.689487 28.300594 178.320153 
C 14.370316 211.950818 7.2 247.99843 7.2 284.4 
C 7.2 320.80157 14.370316 356.849182 28.300594 390.479847 
C 42.230872 424.110513 62.650203 454.670202 88.39 480.41 
C 114.129798 506.149797 144.689487 526.569128 178.320153 540.499406 
C 211.950818 554.429684 247.99843 561.6 284.4 561.6 
C 320.80157 561.6 356.849182 554.429684 390.479847 540.499406 
C 424.110513 526.569128 454.670202 506.149797 480.41 480.41 
C 506.149797 454.670202 526.569128 424.110513 540.499406 390.479847 
C 554.429684 356.849182 561.6 320.80157 561.6 284.4 
M 284.4 284.4 
C 284.4 284.4 284.4 284.4 284.4 284.4 
C 284.4 284.4 284.4 284.4 284.4 284.4 
C 284.4 284.4 284.4 284.4 284.4 284.4 
C 284.4 284.4 284.4 284.4 284.4 284.4 
C 284.4 284.4 284.4 284.4 284.4 284.4 
C 284.4 284.4 284.4 284.4 284.4 284.4 
C 284.4 284.4 284.4 284.4 284.4 284.4 
C 284.4 284.4 284.4 284.4 284.4 284.4 
C 284.4 284.4 284.4 284.4 284.4 284.4 
C 284.4 284.4 284.4 284.4 284.4 284.4 
C 284.4 284.4 284.4 284.4 284.4 284.4 
C 284.4 284.4 284.4 284.4 284.4 284.4 
C 284.4 284.4 284.4 284.4 284.4 284.4 
C 284.4 284.4 284.4 284.4 284.4 284.4 
C 284.4 284.4 284.4 284.4 284.4 284.4 
C 284.4 284.4 284.4 284.4 284.4 284.4 
M 561.6 284.4 
L 561.6 284.4 
z
" style="fill: none"/>
   </g>
   <g id="PolyCollection_1">
    <defs>
     <path id="m6ed3b381d7" d="M 561.6 -284.4 
L 450.72 -284.4 
L 443.982871 -331.257759 
L 550.371452 -362.496265 
L 550.371452 -362.496265 
L 561.6 -284.4 
z
" style="stroke: #333333"/>
    </defs>
    <g clip-path="url(#p5e6113ff97)">
     <use xlink:href="#m6ed3b381d7" x="0" y="568.8" style="fill: #fffbe6; stroke: #333333"/>
    </g>
   </g>
   <g id="PolyCollection_2">
    <defs>
     <path id="ma5a263fb93" d="M 550.371452 -362.496265 
L 443.982871 -331.257759 
L 424.317288 -374.319381 
L 517.595479 -434.265635 
L 517.595479 -434.265635 
L 550.371452 -362.496265 
z
" style="stroke: #333333"/>
    </defs>
    <g clip-path="url(#p5e6113ff97)">
     <use xlink:href="#ma5a263fb93" x="0" y="568.8" style="fill: #fffbe6; stroke: #333333"/>
    </g>
   </g>
   <g id="PolyCollection_3">
    <defs>
     <path id="mc1de7009fe" d="M 517.595479 -434.265635 
L 424.317288 -374.319381 
L 393.316437 -410.096269 
L 465.927395 -493.893782 
L 465.927395 -493.893782 
L 517.595479 -434.265635 
z
" style="stroke: #333333"/>
    </defs>
    <g clip-path="url(#p5e6113ff97)">
     <use xlink:href="#mc1de7009fe" x="0" y="568.8" style="fill: #fffbe6; stroke: #333333"/>
    </g>
   </g>
   <g id="PolyCollection_4">
    <defs>
     <path id="m3aeb3162a6" d="M 465.927395 -493.893782 
L 393.316437 -410.096269 
L 353.491825 -435.689993 
L 399.553042 -536.549989 
L 399.553042 -536.549989 
L 465.927395 -493.893782 
z
" style="stroke: #333333"/>
    </defs>
    <g clip-path="url(#p5e6113ff97)">
     <use xlink:href="#m3aeb3162a6" x="0" y="568.8" style="fill: #fffbe6; stroke: #333333"/>
    </g>
   </g>
   <g id="PolyCollection_5">
    <defs>
     <path id="m8c7880bdf9" d="M 399.553042 -536.549989 
L 353.491825 -435.689993 
L 308.069804 -449.027102 
L 323.849673 -558.778504 
L 323.849673 -558.778504 
L 399.553042 -536.549989 
z
" style="stroke: #333333"/>
    </defs>
    <g clip-path="url(#p5e6113ff97)">
     <use xlink:href="#m8c7880bdf9" x="0" y="568.8" style="fill: #fffbe6; stroke: #333333"/>
    </g>
   </g>
   <g id="PolyCollection_6">
    <defs>
     <path id="m4646c25bd1" d="M 323.849673 -558.778504 
L 308.069804 -449.027102 
L 260.730196 -449.027102 
L 244.950327 -558.778504 
L 244.950327 -558.778504 
L 323.849673 -558.778504 
z
" style="stroke: #333333"/>
    </defs>
    <g clip-path="url(#p5e6113ff97)">
     <use xlink:href="#m4646c25bd1" x="0" y="568.8" style="fill: #fffbe6; stroke: #333333"/>
    </g>
   </g>
   <g id="PolyCollection_7">
    <defs>
     <path id="mb7b0ce666f" d="M 244.950327 -558.778504 
L 260.730196 -449.027102 
L 215.308175 -435.689993 
L 169.246958 -536.549989 
L 169.246958 -536.549989 
L 244.950327 -558.778504 
z
" style="stroke: #333333"/>
    </defs>
    <g clip-path="url(#p5e6113ff97)">
     <use xlink:href="#mb7b0ce666f" x="0" y="568.8" style="fill: #fffbe6; stroke: #333333"/>
    </g>
   </g>
   <g id="PolyCollection_8">
    <defs>
     <path id="m3d8d6635bb" d="M 169.246958 -536.549989 
L 215.308175 -435.689993 
L 175.483563 -410.096269 
L 102.872605 -493.893782 
L 102.872605 -493.893782 
L 169.246958 -536.549989 
z
" style="stroke: #333333"/>
    </defs>
    <g clip-path="url(#p5e6113ff97)">
     <use xlink:href="#m3d8d6635bb" x="0" y="568.8" style="fill: #fffbe6; stroke: #333333"/>
    </g>
   </g>
   <g id="PolyCollection_9">
    <defs>
     <path id="m4a1c2a02b0" d="M 102.872605 -493.893782 
L 175.483563 -410.096269 
L 144.482712 -374.319381 
L 51.204521 -434.265635 
L 51.204521 -434.265635 
L 102.872605 -493.893782 
z
" style="stroke: #333333"/>
    </defs>
    <g clip-path="url(#p5e6113ff97)">
     <use xlink:href="#m4a1c2a02b0" x="0" y="568.8" style="fill: #fffbe6; stroke: #333333"/>
    </g>
   </g>
   <g id="PolyCollection_10">
    <defs>
     <path id="m378f87674e" d="M 51.204521 -434.265635 
L 144.482712 -374.319381 
L 124.817129 -331.257759 
L 18.428548 -362.496265 
L 18.428548 -362.496265 
L 51.204521 -434.265635 
z
" style="stroke: #333333"/>
    </defs>
    <g clip-path="url(#p5e6113ff97)">
     <use xlink:href="#m378f87674e" x="0" y="568.8" style="fill: #fffbe6; stroke: #333333"/>
    </g>
   </g>
   <g id="PolyCollection_11">
    <defs>
     <path id="m53f8ab24c1" d="M 18.428548 -362.496265 
L 124.817129 -331.257759 
L 118.08 -284.4 
L 7.2 -284.4 
L 7.2 -284.4 
L 18.428548 -362.496265 
z
" style="stroke: #333333"/>
    </defs>
    <g clip-path="url(#p5e6113ff97)">
     <use xlink:href="#m53f8ab24c1" x="0" y="568.8" style="fill: #fffbe6; stroke: #333333"/>
    </g>
   </g>
   <g id="PolyCollection_12">
    <defs>
     <path id="m91e91a85eb" d="M 7.2 -284.4 
L 118.08 -284.4 
L 124.817129 -237.542241 
L 18.428548 -206.303735 
L 18.428548 -206.303735 
L 7.2 -284.4 
z
" style="stroke: #333333"/>
    </defs>
    <g clip-path="url(#p5e6113ff97)">
     <use xlink:href="#m91e91a85eb" x="0" y="568.8" style="fill: #fffbe6; stroke: #333333"/>
    </g>
   </g>
   <g id="PolyCollection_13">
    <defs>
     <path id="m5a985857d2" d="M 18.428548 -206.303735 
L 124.817129 -237.542241 
L 144.482712 -194.480619 
L 51.204521 -134.534365 
L 51.204521 -134.534365 
L 18.428548 -206.303735 
z
" style="stroke: #333333"/>
    </defs>
    <g clip-path="url(#p5e6113ff97)">
     <use xlink:href="#m5a985857d2" x="0" y="568.8" style="fill: #fffbe6; stroke: #333333"/>
    </g>
   </g>
   <g id="PolyCollection_14">
    <defs>
     <path id="mf3f8a60eb1" d="M 51.204521 -134.534365 
L 144.482712 -194.480619 
L 175.483563 -158.703731 
L 102.872605 -74.906218 
L 102.872605 -74.906218 
L 51.204521 -134.534365 
z
" style="stroke: #333333"/>
    </defs>
    <g clip-path="url(#p5e6113ff97)">
     <use xlink:href="#mf3f8a60eb1" x="0" y="568.8" style="fill: #fffbe6; stroke: #333333"/>
    </g>
   </g>
   <g id="PolyCollection_15">
    <defs>
     <path id="m58a2387d25" d="M 102.872605 -74.906218 
L 175.483563 -158.703731 
L 215.308175 -133.110007 
L 169.246958 -32.250011 
L 169.246958 -32.250011 
L 102.872605 -74.906218 
z
" style="stroke: #333333"/>
    </defs>
    <g clip-path="url(#p5e6113ff97)">
     <use xlink:href="#m58a2387d25" x="0" y="568.8" style="fill: #fffbe6; stroke: #333333"/>
    </g>
   </g>
   <g id="PolyCollection_16">
    <defs>
     <path id="me81c8e3556" d="M 169.246958 -32.250011 
L 215.308175 -133.110007 
L 260.730196 -119.772898 
L 244.950327 -10.021496 
L 244.950327 -10.021496 
L 169.246958 -32.250011 
z
" style="stroke: #333333"/>
    </defs>
    <g clip-path="url(#p5e6113ff97)">
     <use xlink:href="#me81c8e3556" x="0" y="568.8" style="fill: #fffbe6; stroke: #333333"/>
    </g>
   </g>
   <g id="PolyCollection_17">
    <defs>
     <path id="m6c0989dc25" d="M 244.950327 -10.021496 
L 260.730196 -119.772898 
L 308.069804 -119.772898 
L 323.849673 -10.021496 
L 323.849673 -10.021496 
L 244.950327 -10.021496 
z
" style="stroke: #333333"/>
    </defs>
    <g clip-path="url(#p5e6113ff97)">
     <use xlink:href="#m6c0989dc25" x="0" y="568.8" style="fill: #fffbe6; stroke: #333333"/>
    </g>
   </g>
   <g id="PolyCollection_18">
    <defs>
     <path id="mdbcf5d4189" d="M 323.849673 -10.021496 
L 308.069804 -119.772898 
L 353.491825 -133.110007 
L 399.553042 -32.250011 
L 399.553042 -32.250011 
L 323.849673 -10.021496 
z
" style="stroke: #333333"/>
    </defs>
    <g clip-path="url(#p5e6113ff97)">
     <use xlink:href="#mdbcf5d4189" x="0" y="568.8" style="fill: #fffbe6; stroke: #333333"/>
    </g>
   </g>
   <g id="PolyCollection_19">
    <defs>
     <path id="m07d41bef5d" d="M 399.553042 -32.250011 
L 353.491825 -133.110007 
L 393.316437 -158.703731 
L 465.927395 -74.906218 
L 465.927395 -74.906218 
L 399.553042 -32.250011 
z
" style="stroke: #333333"/>
    </defs>
    <g clip-path="url(#p5e6113ff97)">
     <use xlink:href="#m07d41bef5d" x="0" y="568.8" style="fill: #fffbe6; stroke: #333333"/>
    </g>
   </g>
   <g id="PolyCollection_20">
    <defs>
     <path id="mf19e8eaed1" d="M 465.927395 -74.906218 
L 393.316437 -158.703731 
L 424.317288 -194.480619 
L 517.595479 -134.534365 
L 517.595479 -134.534365 
L 465.927395 -74.906218 
z
" style="stroke: #333333"/>
    </defs>
    <g clip-path="url(#p5e6113ff97)">
     <use xlink:href="#mf19e8eaed1" x="0" y="568.8" style="fill: #fffbe6; stroke: #333333"/>
    </g>
   </g>
   <g id="PolyCollection_21">
    <defs>
     <path id="m1f7d29688a" d="M 517.595479 -134.534365 
L 424.317288 -194.480619 
L 443.982871 -237.542241 
L 550.371452 -206.303735 
L 550.371452 -206.303735 
L 517.595479 -134.534365 
z
" style="stroke: #333333"/>
    </defs>
    <g clip-path="url(#p5e6113ff97)">
     <use xlink:href="#m1f7d29688a" x="0" y="568.8" style="fill: #fffbe6; stroke: #333333"/>
    </g>
   </g>
   <g id="PolyCollection_22">
    <defs>
     <path id="m9bee63cce2" d="M 550.371452 -206.303735 
L 443.982871 -237.542241 
L 450.72 -284.4 
L 561.6 -284.4 
L 561.6 -284.4 
L 550.371452 -206.303735 
z
" style="stroke: #333333"/>
    </defs>
    <g clip-path="url(#p5e6113ff97)">
     <use xlink:href="#m9bee63cce2" x="0" y="568.8" style="fill: #fffbe6; stroke: #333333"/>
    </g>
   </g>
   <g id="matplotlib.axis_1"/>
   <g id="matplotlib.axis_2"/>
   <g id="patch_3">
    <path d="M 561.6 284.4 
C 561.6 247.99843 554.429684 211.950818 540.499406 178.320153 
C 526.569128 144.689487 506.149797 114.129798 480.41 88.39 
C 454.670202 62.650203 424.110513 42.230872 390.479847 28.300594 
C 356.849182 14.370316 320.80157 7.2 284.4 7.2 
C 247.99843 7.2 211.950818 14.370316 178.320153 28.300594 
C 144.689487 42.230872 114.129798 62.650203 88.39 88.39 
C 62.650203 114.129798 42.230872 144.689487 28.300594 178.320153 
C 14.370316 211.950818 7.2 247.99843 7.2 284.4 
C 7.2 320.80157 14.370316 356.849182 28.300594 390.479847 
C 42.230872 424.110513 62.650203 454.670202 88.39 480.41 
C 114.129798 506.149797 144.689487 526.569128 178.320153 540.499406 
C 211.950818 554.429684 247.99843 561.6 284.4 561.6 
C 320.80157 561.6 356.849182 554.429684 390.479847 540.499406 
C 424.110513 526.569128 454.670202 506.149797 480.41 480.41 
C 506.149797 454.670202 526.569128 424.110513 540.499406 390.479847 
C 554.429684 356.849182 561.6 320.80157 561.6 284.4 
" style="fill: none; stroke: #1a1a1a; stroke-linejoin: miter; stroke-linecap: square"/>
   </g>
   <g id="text_1">
    <!-- 0 -->
    <g style="fill: #222222" transform="translate(535.21232 252.556249) rotate(-98.181818) scale(0.12 -0.12)">
     <defs>
      <path id="DejaVuSans-Bold-30" d="M 2944 2338 
Q 2944 3213 2780 3570 
Q 2616 3928 2228 3928 
Q 1841 3928 1675 3570 
Q 1509 3213 1509 2338 
Q 1509 1453 1675 1090 
Q 1841 728 2228 728 
Q 2613 728 2778 1090 
Q 2944 1453 2944 2338 
z
M 4147 2328 
Q 4147 1169 3647 539 
Q 3147 -91 2228 -91 
Q 1306 -91 806 539 
Q 306 1169 306 2328 
Q 306 3491 806 4120 
Q 1306 4750 2228 4750 
Q 3147 4750 3647 4120 
Q 4147 3491 4147 2328 
z
" transform="scale(0.015625)"/>
     </defs>
     <use xlink:href="#DejaVuSans-Bold-30"/>
    </g>
   </g>
   <g id="text_2">
    <!-- ♅ -->
    <g style="fill: #222222" transform="translate(496.248544 262.092816) rotate(-98.181818) scale(0.18 -0.18)">
     <defs>
      <path id="DejaVuSans-2645" d="M 3162 1114 
Q 3041 1238 2866 1238 
Q 2691 1238 2567 1114 
Q 2444 991 2444 819 
Q 2444 641 2567 519 
Q 2691 397 2866 397 
Q 3038 397 3161 519 
Q 3284 641 3284 819 
Q 3284 991 3162 1114 
z
M 3103 1597 
Q 3294 1541 3444 1391 
Q 3681 1153 3681 815 
Q 3681 478 3443 239 
Q 3206 0 2866 0 
Q 2531 0 2292 239 
Q 2053 478 2053 815 
Q 2053 1153 2291 1391 
Q 2438 1544 2631 1597 
L 2631 2834 
L 1731 2834 
L 1731 1469 
L 775 1469 
L 775 1941 
L 1259 1941 
L 1259 4200 
L 775 4200 
L 775 4675 
L 1731 4675 
L 1731 3306 
L 2631 3306 
L 2631 4675 
L 3103 4675 
L 3103 3306 
L 4003 3306 
L 4003 4675 
L 4956 4675 
L 4956 4200 
L 4478 4200 
L 4478 1941 
L 4956 1941 
L 4956 1469 
L 4003 1469 
L 4003 2834 
L 3103 2834 
L 3103 1597 
z
" transform="scale(0.015625)"/>
     </defs>
     <use xlink:href="#DejaVuSans-2645"/>
    </g>
   </g>
   <g id="text_3">
    <!-- I -->
    <g style="fill: #222222" transform="translate(515.274293 181.417189) rotate(-114.545455) scale(0.12 -0.12)">
     <defs>
      <path id="DejaVuSans-Bold-49" d="M 588 4666 
L 1791 4666 
L 1791 0 
L 588 0 
L 588 4666 
z
" transform="scale(0.015625)"/>
     </defs>
     <use xlink:href="#DejaVuSans-Bold-49"/>
    </g>
   </g>
   <g id="text_4">
    <!-- ☿ -->
    <g style="fill: #222222" transform="translate(480.325169 200.996484) rotate(-114.545455) scale(0.18 -0.18)">
     <defs>
      <path id="DejaVuSans-263f" d="M 2728 3469 
Q 2853 3388 2966 3275 
Q 3381 2866 3381 2275 
Q 3381 1688 2969 1300 
Q 2631 988 2184 944 
L 2184 291 
L 2859 297 
L 2859 -16 
L 2172 -19 
L 2175 -650 
L 1772 -650 
L 1769 -16 
L 1138 -16 
L 1138 291 
L 1769 291 
L 1763 944 
Q 1303 984 963 1300 
Q 547 1688 547 2275 
Q 547 2866 963 3275 
Q 1075 3388 1200 3469 
Q 1075 3547 963 3663 
Q 547 4072 547 4659 
L 547 4684 
L 991 4684 
L 991 4653 
Q 991 4247 1275 3966 
Q 1541 3706 1906 3684 
L 2025 3684 
Q 2388 3706 2653 3966 
Q 2938 4247 2938 4653 
L 2938 4684 
L 3381 4684 
L 3381 4659 
Q 3381 4072 2966 3663 
Q 2853 3547 2728 3469 
z
M 2025 3250 
L 1906 3250 
Q 1541 3231 1275 2969 
Q 991 2691 991 2284 
Q 991 1878 1277 1612 
Q 1563 1347 1969 1347 
Q 2366 1347 2652 1612 
Q 2938 1878 2938 2284 
Q 2938 2691 2653 2969 
Q 2388 3231 2025 3250 
z
" transform="scale(0.015625)"/>
     </defs>
     <use xlink:href="#DejaVuSans-263f"/>
    </g>
   </g>
   <g id="text_5">
    <!-- II -->
    <g style="fill: #222222" transform="translate(478.370423 122.230886) rotate(-130.909091) scale(0.12 -0.12)">
     <use xlink:href="#DejaVuSans-Bold-49"/>
     <use xlink:href="#DejaVuSans-Bold-49" x="37.207031"/>
    </g>
   </g>
   <g id="text_6">
    <!-- ☽ -->
    <g style="fill: #222222" transform="translate(450.558162 151.100033) rotate(-130.909091) scale(0.18 -0.18)">
     <defs>
      <path id="DejaVuSans-263d" d="M 2794 4672 
Q 4028 4672 4878 3494 
Q 5209 2953 5209 2334 
Q 5209 1109 3972 306 
Q 3413 0 2863 0 
L 2709 0 
Q 2563 0 2309 47 
L 2309 66 
Q 3175 313 3566 866 
Q 4050 1497 4050 2334 
Q 4050 3584 3006 4284 
Q 2581 4534 2291 4584 
L 2291 4594 
Q 2291 4628 2756 4672 
L 2794 4672 
z
M 2881 4478 
L 2881 4469 
Q 4309 3853 4309 2316 
Q 4309 1059 3256 334 
L 3122 259 
L 3122 247 
L 3141 247 
Q 3409 247 3903 506 
Q 4631 981 4888 1744 
Q 4978 2034 4978 2325 
L 4978 2353 
Q 4978 3344 3894 4159 
Q 3384 4478 2891 4478 
L 2881 4478 
z
" transform="scale(0.015625)"/>
     </defs>
     <use xlink:href="#DejaVuSans-263d"/>
    </g>
   </g>
   <g id="text_7">
    <!-- III -->
    <g style="fill: #222222" transform="translate(426.702775 75.358903) rotate(-147.272727) scale(0.12 -0.12)">
     <use xlink:href="#DejaVuSans-Bold-49"/>
     <use xlink:href="#DejaVuSans-Bold-49" x="37.207031"/>
     <use xlink:href="#DejaVuSans-Bold-49" x="74.414062"/>
    </g>
   </g>
   <g id="text_8">
    <!-- ♀ -->
    <g style="fill: #222222" transform="translate(405.030485 108.889164) rotate(-147.272727) scale(0.18 -0.18)">
     <defs>
      <path id="DejaVuSans-2640" d="M 2344 4122 
Q 1831 4122 1470 3765 
Q 1109 3409 1109 2897 
Q 1109 2388 1470 2050 
Q 1831 1713 2344 1713 
Q 2847 1713 3212 2050 
Q 3578 2388 3578 2897 
Q 3578 3409 3212 3765 
Q 2847 4122 2344 4122 
z
M 1075 1663 
Q 547 2153 547 2897 
Q 547 3644 1072 4162 
Q 1597 4681 2344 4681 
Q 3081 4681 3611 4162 
Q 4141 3644 4141 2897 
Q 4141 2150 3613 1663 
Q 3188 1269 2625 1213 
L 2625 388 
L 3475 388 
L 3475 0 
L 2625 0 
L 2625 -803 
L 2063 -803 
L 2063 0 
L 1213 0 
L 1213 388 
L 2063 388 
L 2063 1216 
Q 1497 1269 1075 1663 
z
" transform="scale(0.015625)"/>
     </defs>
     <use xlink:href="#DejaVuSans-2640"/>
    </g>
   </g>
   <g id="text_9">
    <!-- IV -->
    <g style="fill: #222222" transform="translate(362.216639 43.785659) rotate(-163.636364) scale(0.12 -0.12)">
     <defs>
      <path id="DejaVuSans-Bold-56" d="M 31 4666 
L 1241 4666 
L 2478 1222 
L 3713 4666 
L 4922 4666 
L 3194 0 
L 1759 0 
L 31 4666 
z
" transform="scale(0.015625)"/>
     </defs>
     <use xlink:href="#DejaVuSans-Bold-49"/>
     <use xlink:href="#DejaVuSans-Bold-56" x="37.207031"/>
    </g>
   </g>
   <g id="text_10">
    <!-- ♄ -->
    <g style="fill: #222222" transform="translate(352.113738 82.429047) rotate(-163.636364) scale(0.18 -0.18)">
     <defs>
      <path id="DejaVuSans-2644" d="M 1731 3641 
L 1400 3641 
L 1400 4113 
L 1731 4113 
L 1731 4675 
L 2206 4675 
L 2206 4113 
L 2763 4113 
L 2763 3641 
L 2206 3641 
L 2206 2431 
Q 2553 2772 3028 2772 
Q 3584 2772 3957 2369 
Q 4331 1966 4331 1381 
Q 4331 1100 4112 742 
Q 3894 384 3894 6 
L 3894 0 
L 3422 0 
Q 3422 413 3642 784 
Q 3863 1156 3863 1381 
Q 3863 1766 3620 2030 
Q 3378 2294 3031 2294 
Q 2688 2294 2447 2028 
Q 2206 1763 2206 1381 
L 2206 0 
L 1731 0 
L 1731 3641 
z
" transform="scale(0.015625)"/>
     </defs>
     <use xlink:href="#DejaVuSans-2644"/>
    </g>
   </g>
   <g id="text_11">
    <!-- V -->
    <g style="fill: #222222" transform="translate(289.043437 31.60875) rotate(-180) scale(0.12 -0.12)">
     <use xlink:href="#DejaVuSans-Bold-56"/>
    </g>
   </g>
   <g id="text_12">
    <!-- ♃ -->
    <g style="fill: #222222" transform="translate(292.469062 71.533125) rotate(-180) scale(0.18 -0.18)">
     <defs>
      <path id="DejaVuSans-2643" d="M 2441 1659 
L 2441 1663 
Q 2822 1663 3087 1930 
Q 3353 2197 3353 2575 
Q 3353 2953 3089 3220 
Q 2825 3488 2441 3488 
Q 2063 3488 1795 3220 
Q 1528 2953 1528 2575 
L 1528 2569 
L 1059 2569 
Q 1059 3147 1462 3553 
Q 1866 3959 2441 3959 
Q 3025 3959 3428 3553 
Q 3831 3147 3831 2569 
Q 3831 2044 3491 1659 
L 4200 1659 
L 4200 4675 
L 4672 4675 
L 4672 0 
L 4200 0 
L 4200 1188 
L 1059 1188 
L 1059 1659 
L 2441 1659 
z
" transform="scale(0.015625)"/>
     </defs>
     <use xlink:href="#DejaVuSans-2643"/>
    </g>
   </g>
   <g id="text_13">
    <!-- VI -->
    <g style="fill: #222222" transform="translate(219.777589 39.911484) rotate(-196.363636) scale(0.12 -0.12)">
     <use xlink:href="#DejaVuSans-Bold-56"/>
     <use xlink:href="#DejaVuSans-Bold-49" x="77.392578"/>
    </g>
   </g>
   <g id="text_14">
    <!-- ♊ -->
    <g style="fill: #222222" transform="translate(232.17068 77.882412) rotate(-196.363636) scale(0.18 -0.18)">
     <defs>
      <path id="DejaVuSans-264a" d="M 1656 3988 
Q 1131 4056 600 4219 
L 600 4681 
Q 1684 4400 2871 4400 
Q 4059 4400 5131 4681 
L 5131 4209 
Q 4581 4063 4063 3988 
L 4063 694 
Q 4581 622 5131 475 
L 5131 0 
Q 4059 284 2871 284 
Q 1684 284 600 0 
L 600 463 
Q 1131 628 1656 694 
L 1656 3988 
z
M 2131 731 
Q 2494 772 2859 772 
L 3588 731 
L 3588 3953 
Q 3225 3913 2859 3913 
L 2131 3953 
L 2131 731 
z
" transform="scale(0.015625)"/>
     </defs>
     <use xlink:href="#DejaVuSans-264a"/>
    </g>
   </g>
   <g id="text_15">
    <!-- VII -->
    <g style="fill: #222222" transform="translate(155.392711 66.814413) rotate(-212.727273) scale(0.12 -0.12)">
     <use xlink:href="#DejaVuSans-Bold-56"/>
     <use xlink:href="#DejaVuSans-Bold-49" x="77.392578"/>
     <use xlink:href="#DejaVuSans-Bold-49" x="114.599609"/>
    </g>
   </g>
   <g id="text_16">
    <!-- ♋ -->
    <g style="fill: #222222" transform="translate(176.103606 100.962525) rotate(-212.727273) scale(0.18 -0.18)">
     <defs>
      <path id="DejaVuSans-264b" d="M 4412 1969 
Q 4206 2175 3909 2175 
Q 3613 2175 3406 1969 
Q 3200 1763 3200 1466 
Q 3200 1169 3406 961 
Q 3613 753 3909 753 
Q 4203 753 4411 961 
Q 4619 1169 4619 1466 
Q 4619 1763 4412 1969 
z
M 3313 200 
Q 2338 206 1769 268 
Q 1200 331 722 466 
L 722 853 
Q 1513 591 2081 556 
Q 2650 522 2834 522 
Q 3241 522 3216 603 
Q 2806 941 2806 1463 
Q 2806 1922 3126 2245 
Q 3447 2569 3906 2569 
Q 4372 2569 4694 2245 
Q 5016 1922 5016 1462 
Q 5016 1003 4691 681 
Q 4463 441 4078 322 
Q 3694 203 3313 200 
z
M 1828 2372 
Q 2122 2372 2330 2578 
Q 2538 2784 2538 3081 
Q 2538 3378 2330 3584 
Q 2122 3791 1828 3791 
Q 1534 3791 1325 3584 
Q 1116 3378 1116 3081 
Q 1116 2784 1323 2578 
Q 1531 2372 1828 2372 
z
M 2422 4347 
Q 3400 4341 3969 4277 
Q 4538 4213 5016 4078 
L 5016 3694 
Q 4225 3956 3659 3989 
Q 3094 4022 2913 4022 
Q 2497 4022 2522 3941 
Q 2931 3603 2931 3084 
Q 2931 2622 2611 2298 
Q 2291 1975 1831 1975 
Q 1366 1975 1044 2298 
Q 722 2622 722 3084 
Q 722 3541 1047 3863 
Q 1275 4103 1658 4223 
Q 2041 4344 2422 4347 
z
" transform="scale(0.015625)"/>
     </defs>
     <use xlink:href="#DejaVuSans-264b"/>
    </g>
   </g>
   <g id="text_17">
    <!-- VIII -->
    <g style="fill: #222222" transform="translate(100.779241 110.286736) rotate(-229.090909) scale(0.12 -0.12)">
     <use xlink:href="#DejaVuSans-Bold-56"/>
     <use xlink:href="#DejaVuSans-Bold-49" x="77.392578"/>
     <use xlink:href="#DejaVuSans-Bold-49" x="114.599609"/>
     <use xlink:href="#DejaVuSans-Bold-49" x="151.806641"/>
    </g>
   </g>
   <g id="text_18">
    <!-- ♍ -->
    <g style="fill: #222222" transform="translate(128.810062 138.903651) rotate(-229.090909) scale(0.18 -0.18)">
     <defs>
      <path id="DejaVuSans-264d" d="M 2125 4675 
Q 2322 4675 2508 4365 
Q 2694 4056 2694 3656 
Q 2819 4028 3128 4351 
Q 3438 4675 3672 4675 
Q 3866 4675 3994 4414 
Q 4122 4153 4122 3469 
L 4122 2838 
Q 4272 3228 4476 3414 
Q 4681 3600 4894 3600 
Q 5081 3600 5237 3237 
Q 5394 2875 5394 2022 
Q 5394 747 4203 -256 
Q 4206 -550 4663 -1153 
L 4138 -1153 
Q 3994 -1025 3763 -522 
Q 3241 -838 2694 -859 
L 2694 -497 
Q 3291 -409 3678 -138 
L 3650 541 
L 3650 3213 
Q 3650 3269 3650 3322 
Q 3650 4200 3506 4203 
Q 3325 4200 3117 3861 
Q 2909 3522 2713 2897 
L 2713 0 
L 2241 0 
L 2241 2881 
Q 2241 3884 2192 4050 
Q 2144 4216 2034 4216 
L 2031 4216 
L 2028 4216 
Q 1900 4216 1620 3862 
Q 1341 3509 1281 2838 
L 1281 0 
L 816 0 
L 816 3403 
Q 816 3997 341 4594 
L 784 4594 
Q 1153 4347 1266 3797 
Q 1338 4088 1623 4381 
Q 1909 4675 2125 4675 
z
M 4122 1931 
L 4122 181 
Q 4928 963 5003 2019 
Q 5003 2622 4933 2839 
Q 4863 3056 4775 3056 
L 4763 3056 
Q 4669 3056 4445 2734 
Q 4222 2413 4122 1931 
z
" transform="scale(0.015625)"/>
     </defs>
     <use xlink:href="#DejaVuSans-264d"/>
    </g>
   </g>
   <g id="text_19">
    <!-- IX -->
    <g style="fill: #222222" transform="translate(57.301829 173.148634) rotate(-245.454545) scale(0.12 -0.12)">
     <defs>
      <path id="DejaVuSans-Bold-58" d="M 3188 2381 
L 4806 0 
L 3553 0 
L 2463 1594 
L 1381 0 
L 122 0 
L 1741 2381 
L 184 4666 
L 1441 4666 
L 2463 3163 
L 3481 4666 
L 4744 4666 
L 3188 2381 
z
" transform="scale(0.015625)"/>
     </defs>
     <use xlink:href="#DejaVuSans-Bold-49"/>
     <use xlink:href="#DejaVuSans-Bold-58" x="37.207031"/>
    </g>
   </g>
   <g id="text_20">
    <!-- ♍ -->
    <g style="fill: #222222" transform="translate(94.121489 188.632027) rotate(-245.454545) scale(0.18 -0.18)">
     <use xlink:href="#DejaVuSans-264d"/>
    </g>
   </g>
   <g id="text_21">
    <!-- X -->
    <g style="fill: #222222" transform="translate(34.840096 243.845511) rotate(-261.818182) scale(0.12 -0.12)">
     <use xlink:href="#DejaVuSans-Bold-58"/>
    </g>
   </g>
   <g id="text_22">
    <!-- ♃ -->
    <g style="fill: #222222" transform="translate(74.84815 246.118954) rotate(-261.818182) scale(0.18 -0.18)">
     <use xlink:href="#DejaVuSans-2643"/>
    </g>
   </g>
   <g id="text_23">
    <!-- XI -->
    <g style="fill: #222222" transform="translate(33.205832 313.587936) rotate(-278.181818) scale(0.12 -0.12)">
     <use xlink:href="#DejaVuSans-Bold-58"/>
     <use xlink:href="#DejaVuSans-Bold-49" x="77.099609"/>
    </g>
   </g>
   <g id="text_24">
    <!-- ♌ -->
    <g style="fill: #222222" transform="translate(72.551456 306.707184) rotate(-278.181818) scale(0.18 -0.18)">
     <defs>
      <path id="DejaVuSans-264c" d="M 2063 1238 
Q 2297 1328 2375 1504 
Q 2453 1681 2453 1803 
Q 2453 1913 2409 2022 
Q 2319 2256 2142 2334 
Q 1966 2413 1844 2413 
Q 1731 2413 1622 2369 
Q 1388 2275 1311 2101 
Q 1234 1928 1234 1806 
Q 1234 1697 1278 1584 
Q 1372 1347 1545 1270 
Q 1719 1194 1841 1194 
Q 1950 1194 2063 1238 
z
M 2100 3544 
Q 2100 4047 2448 4361 
Q 2797 4675 3359 4675 
Q 3897 4675 4237 4329 
Q 4578 3984 4578 3434 
Q 4578 2850 4125 2065 
Q 3672 1281 3672 719 
Q 3684 331 4103 322 
Q 4325 322 4638 597 
L 4841 372 
Q 4444 0 4097 0 
Q 3788 0 3563 189 
Q 3338 378 3338 725 
Q 3338 1347 3786 2098 
Q 4234 2850 4234 3456 
Q 4234 3875 3978 4133 
Q 3722 4391 3309 4391 
Q 2913 4391 2678 4148 
Q 2444 3906 2444 3503 
Q 2444 3316 2516 3089 
Q 2588 2863 2666 2669 
Q 2781 2363 2795 2163 
Q 2809 1963 2809 1909 
Q 2809 1638 2709 1425 
Q 2550 1066 2188 925 
Q 2013 856 1838 856 
Q 1650 856 1379 973 
Q 1109 1091 963 1466 
Q 894 1634 894 1809 
Q 894 1997 978 2184 
Q 1138 2541 1503 2684 
Q 1675 2750 1847 2750 
Q 2084 2750 2316 2622 
Q 2341 2622 2341 2663 
Q 2341 2744 2220 3031 
Q 2100 3319 2100 3544 
z
" transform="scale(0.015625)"/>
     </defs>
     <use xlink:href="#DejaVuSans-264c"/>
    </g>
   </g>
   <g id="text_25">
    <!-- XII -->
    <g style="fill: #222222" transform="translate(50.676868 381.144726) rotate(-294.545455) scale(0.12 -0.12)">
     <use xlink:href="#DejaVuSans-Bold-58"/>
     <use xlink:href="#DejaVuSans-Bold-49" x="77.099609"/>
     <use xlink:href="#DejaVuSans-Bold-49" x="114.306641"/>
    </g>
   </g>
   <g id="text_26">
    <!-- ♆ -->
    <g style="fill: #222222" transform="translate(87.41747 365.488218) rotate(-294.545455) scale(0.18 -0.18)">
     <defs>
      <path id="DejaVuSans-2646" d="M 3106 584 
L 3106 0 
L 2634 0 
L 2634 584 
L 2084 584 
L 2084 1056 
L 2634 1056 
L 2634 1491 
Q 2119 1559 1738 1941 
Q 1269 2409 1266 3081 
L 1266 3344 
L 816 2900 
L 813 3338 
L 1266 3816 
L 1741 3816 
L 2191 3338 
L 2191 2900 
L 1741 3344 
L 1741 3081 
L 1747 3081 
L 1747 3075 
L 1741 3075 
Q 1744 2603 2069 2278 
Q 2313 2031 2634 1969 
L 2634 4200 
L 2181 3759 
L 2178 4194 
L 2634 4675 
L 3106 4675 
L 3559 4194 
L 3559 3759 
L 3106 4200 
L 3106 1972 
Q 3422 2034 3663 2278 
Q 3994 2609 3994 3078 
L 3994 3081 
L 3997 3081 
L 3997 3359 
L 3547 2916 
L 3544 3353 
L 3997 3831 
L 4472 3831 
L 4922 3353 
L 4922 2916 
L 4472 3359 
L 4472 3081 
L 4475 3081 
L 4475 3069 
Q 4472 2409 4003 1941 
Q 3622 1563 3106 1491 
L 3106 1056 
L 3653 1056 
L 3653 584 
L 3106 584 
z
" transform="scale(0.015625)"/>
     </defs>
     <use xlink:href="#DejaVuSans-2646"/>
    </g>
   </g>
   <g id="text_27">
    <!-- XIII -->
    <g style="fill: #222222" transform="translate(85.938664 441.386325) rotate(-310.909091) scale(0.12 -0.12)">
     <use xlink:href="#DejaVuSans-Bold-58"/>
     <use xlink:href="#DejaVuSans-Bold-49" x="77.099609"/>
     <use xlink:href="#DejaVuSans-Bold-49" x="114.306641"/>
     <use xlink:href="#DejaVuSans-Bold-49" x="151.513672"/>
    </g>
   </g>
   <g id="text_28">
    <!-- ☠ -->
    <g style="fill: #222222" transform="translate(118.241838 417.699967) rotate(-310.909091) scale(0.18 -0.18)">
     <defs>
      <path id="DejaVuSans-2620" d="M 2922 4675 
Q 3875 4675 4331 4072 
Q 4513 3734 4513 3472 
L 4513 3256 
Q 4513 2900 4197 2581 
L 4216 2288 
L 4216 2269 
Q 4216 2103 4138 1959 
L 4156 1959 
Q 4656 2153 4656 2344 
Q 4794 2522 4906 2522 
L 4931 2522 
Q 5128 2522 5128 2134 
Q 5347 1969 5347 1863 
L 5347 1788 
Q 5266 1647 5069 1647 
L 4791 1669 
Q 4016 1331 3822 1203 
L 3822 1147 
L 4553 834 
L 4772 875 
Q 5069 819 5069 681 
Q 5069 563 4831 369 
Q 4831 0 4628 0 
L 4609 0 
Q 4450 0 4234 369 
L 3641 659 
Q 3403 350 2866 350 
Q 2319 350 2094 659 
Q 1441 350 1441 272 
Q 1281 0 1144 0 
L 1100 0 
Q 925 0 925 350 
Q 688 559 688 700 
Q 688 834 966 875 
L 1203 834 
L 1916 1147 
L 1916 1203 
L 966 1669 
L 628 1647 
Q 413 1647 391 1822 
L 391 1863 
Q 391 1947 609 2153 
Q 622 2503 744 2503 
L 847 2503 
Q 997 2503 1184 2153 
L 1600 1959 
L 1600 1978 
L 1522 2250 
L 1559 2541 
Q 1225 2888 1225 3563 
Q 1334 4281 2156 4584 
Q 2478 4675 2922 4675 
z
M 1359 3450 
Q 1359 3081 1578 2716 
L 1600 2716 
L 1600 2966 
Q 1503 3316 1503 3491 
Q 1538 3647 1578 3647 
L 1619 3647 
L 1678 3588 
L 1638 3450 
L 1738 3006 
L 1738 2794 
L 1678 2269 
L 1678 2231 
Q 1678 1938 2156 1844 
Q 2372 1669 2372 1531 
L 2372 1456 
L 2688 1416 
L 2966 1416 
L 3363 1497 
Q 3363 1791 3975 1997 
Q 4078 2109 4078 2344 
L 3997 2928 
L 4100 3416 
L 4100 3472 
L 4059 3606 
L 4156 3669 
Q 4234 3634 4234 3528 
L 4234 3375 
L 4138 2831 
L 4156 2756 
Q 4378 3013 4378 3297 
L 4378 3431 
Q 4378 4088 3678 4403 
Q 3278 4534 2928 4534 
L 2809 4534 
Q 1750 4534 1422 3781 
Q 1359 3597 1359 3450 
z
M 2513 2947 
Q 2656 2906 2656 2750 
Q 2656 2716 2650 2675 
Q 2475 2191 2194 2191 
L 2175 2191 
Q 1931 2191 1819 2675 
Q 1819 2947 2513 2947 
z
M 3266 2947 
Q 3900 2916 3919 2663 
Q 3803 2191 3503 2191 
Q 3297 2191 3088 2675 
Q 3088 2684 3088 2691 
Q 3088 2941 3266 2947 
z
M 3822 1397 
L 3841 1397 
Q 4716 1803 4791 1803 
L 5109 1788 
Q 5209 1813 5209 1844 
Q 4991 2072 4991 2191 
Q 4969 2388 4906 2388 
Q 4819 2359 4656 2038 
Q 3878 1688 3878 1628 
L 3822 1397 
z
M 784 2363 
Q 731 2016 688 2016 
Q 525 1900 525 1822 
L 669 1788 
L 966 1803 
Q 1163 1747 1916 1375 
L 1916 1416 
Q 1916 1709 1600 1788 
Q 966 2047 966 2250 
Q 888 2363 784 2363 
z
M 2803 2322 
L 2847 2300 
L 2847 1803 
L 2688 1647 
Q 2569 1684 2569 1863 
Q 2569 2191 2803 2322 
z
M 2953 2331 
Q 3169 2166 3169 1822 
Q 3169 1672 3044 1647 
L 2891 1803 
L 2891 2309 
L 2953 2331 
z
M 2056 1128 
Q 2197 506 2866 506 
Q 3544 550 3678 1147 
Q 3675 1178 3675 1216 
Q 3675 1419 3763 1747 
Q 3650 1628 3563 1084 
Q 3328 856 2966 856 
L 2791 856 
Q 2194 925 2156 1203 
Q 2134 1497 1994 1747 
Q 2063 1456 2063 1244 
Q 2063 1184 2056 1128 
z
M 2113 1669 
Q 2175 1553 2253 1128 
L 2272 1128 
L 2272 1416 
Q 2244 1613 2113 1669 
z
M 3466 1416 
L 3466 1128 
Q 3513 1128 3522 1375 
L 3600 1647 
Q 3559 1647 3484 1438 
L 3466 1416 
z
M 2353 1397 
L 2353 1259 
L 2409 1244 
L 2409 1381 
L 2353 1397 
z
M 3322 1397 
L 3322 1244 
L 3403 1275 
L 3403 1422 
L 3322 1397 
z
M 2472 1375 
L 2472 1219 
L 2550 1203 
L 2550 1356 
L 2472 1375 
z
M 3188 1356 
L 3188 1203 
L 3272 1228 
L 3266 1375 
L 3188 1356 
z
M 3044 1356 
L 3044 1166 
L 3116 1172 
L 3106 1356 
L 3044 1356 
z
M 2747 1338 
L 2747 1166 
L 2847 1166 
L 2847 1338 
L 2747 1338 
z
M 2909 1338 
L 2909 1166 
L 2988 1166 
L 2988 1338 
L 2909 1338 
z
M 2472 1147 
L 2472 988 
L 2550 972 
L 2550 1128 
L 2472 1147 
z
M 2909 1084 
L 2909 931 
L 2988 931 
L 2988 1106 
L 2909 1084 
z
M 2747 1084 
L 2747 931 
L 2847 931 
L 2847 1084 
L 2747 1084 
z
M 1225 700 
L 869 716 
L 847 700 
L 847 641 
Q 1063 463 1063 313 
Q 1081 138 1125 138 
Q 1184 138 1403 463 
Q 1888 706 1994 797 
Q 1934 913 1934 1006 
Q 1353 700 1225 700 
z
M 3800 988 
L 3744 775 
Q 4453 450 4453 313 
Q 4453 266 4609 138 
Q 4675 138 4713 463 
L 4906 659 
Q 4888 716 4791 716 
L 4494 700 
L 3800 988 
z
M 2603 1338 
L 2594 1184 
L 2684 1166 
L 2684 1338 
L 2603 1338 
z
M 2606 1109 
L 2606 953 
L 2684 934 
L 2684 1088 
L 2606 1109 
z
M 2334 1191 
L 2334 1038 
L 2413 1016 
L 2413 1172 
L 2334 1191 
z
M 3050 1097 
L 3050 941 
L 3134 959 
L 3134 1116 
L 3050 1097 
z
M 3181 1128 
L 3181 972 
L 3259 988 
L 3259 1147 
L 3181 1128 
z
M 3322 1178 
L 3322 1022 
L 3403 1044 
L 3403 1197 
L 3322 1178 
z
" transform="scale(0.015625)"/>
     </defs>
     <use xlink:href="#DejaVuSans-2620"/>
    </g>
   </g>
   <g id="text_29">
    <!-- XIV -->
    <g style="fill: #222222" transform="translate(138.055265 490.843487) rotate(-327.272727) scale(0.12 -0.12)">
     <use xlink:href="#DejaVuSans-Bold-58"/>
     <use xlink:href="#DejaVuSans-Bold-49" x="77.099609"/>
     <use xlink:href="#DejaVuSans-Bold-56" x="114.306641"/>
    </g>
   </g>
   <g id="text_30">
    <!-- ♐ -->
    <g style="fill: #222222" transform="translate(162.527351 459.112546) rotate(-327.272727) scale(0.18 -0.18)">
     <defs>
      <path id="DejaVuSans-2650" d="M 4731 2275 
L 4731 3863 
L 2528 1659 
L 3519 669 
L 3181 331 
L 2191 1322 
L 866 -3 
L 863 0 
L 531 331 
L 528 334 
L 1853 1659 
L 863 2650 
L 866 2653 
L 1197 2984 
L 1200 2988 
L 2191 1997 
L 4394 4200 
L 2806 4200 
L 2806 4675 
L 5206 4675 
L 5206 2275 
L 4731 2275 
z
" transform="scale(0.015625)"/>
     </defs>
     <use xlink:href="#DejaVuSans-2650"/>
    </g>
   </g>
   <g id="text_31">
    <!-- XV -->
    <g style="fill: #222222" transform="translate(204.286874 524.340031) rotate(-343.636364) scale(0.12 -0.12)">
     <use xlink:href="#DejaVuSans-Bold-58"/>
     <use xlink:href="#DejaVuSans-Bold-56" x="77.099609"/>
    </g>
   </g>
   <g id="text_32">
    <!-- ♇ -->
    <g style="fill: #222222" transform="translate(216.686262 486.370953) rotate(-343.636364) scale(0.18 -0.18)">
     <defs>
      <path id="DejaVuSans-2647" d="M 1563 4675 
L 2841 4675 
Q 3784 4675 4097 4025 
Q 4197 3784 4197 3488 
Q 4197 2656 3413 2369 
Q 3228 2316 3059 2316 
L 1991 2316 
L 1991 456 
L 3972 456 
L 3997 431 
L 3997 25 
L 3972 0 
L 1563 0 
L 1538 25 
L 1538 4647 
L 1563 4675 
z
M 1991 4238 
L 1991 2750 
L 3009 2750 
Q 3416 2750 3641 3156 
Q 3691 3238 3716 3488 
Q 3716 4000 3209 4188 
Q 3094 4238 2841 4238 
L 1991 4238 
z
" transform="scale(0.015625)"/>
     </defs>
     <use xlink:href="#DejaVuSans-2647"/>
    </g>
   </g>
   <g id="text_33">
    <!-- XVI -->
    <g style="fill: #222222" transform="translate(272.89875 537.19125) scale(0.12 -0.12)">
     <use xlink:href="#DejaVuSans-Bold-58"/>
     <use xlink:href="#DejaVuSans-Bold-56" x="77.099609"/>
     <use xlink:href="#DejaVuSans-Bold-49" x="154.492188"/>
    </g>
   </g>
   <g id="text_34">
    <!-- ♄ -->
    <g style="fill: #222222" transform="translate(276.330937 497.266875) scale(0.18 -0.18)">
     <use xlink:href="#DejaVuSans-2644"/>
    </g>
   </g>
   <g id="text_35">
    <!-- XVII -->
    <g style="fill: #222222" transform="translate(342.442388 530.820585) rotate(-16.363636) scale(0.12 -0.12)">
     <use xlink:href="#DejaVuSans-Bold-58"/>
     <use xlink:href="#DejaVuSans-Bold-56" x="77.099609"/>
     <use xlink:href="#DejaVuSans-Bold-49" x="154.492188"/>
     <use xlink:href="#DejaVuSans-Bold-49" x="191.699219"/>
    </g>
   </g>
   <g id="text_36">
    <!-- ⭐ -->
    <g style="fill: #222222" transform="translate(339.188918 490.166023) rotate(-16.363636) scale(0.18 -0.18)">
     <defs>
      <path id="DejaVuSans-2b50" d="M 319 -1131 
L 319 4513 
L 3519 4513 
L 3519 -1131 
L 319 -1131 
z
M 678 -775 
L 3163 -775 
L 3163 4153 
L 678 4153 
L 678 -775 
z
" transform="scale(0.015625)"/>
     </defs>
     <use xlink:href="#DejaVuSans-2b50"/>
    </g>
   </g>
   <g id="text_37">
    <!-- XVIII -->
    <g style="fill: #222222" transform="translate(407.63813 505.693201) rotate(-32.727273) scale(0.12 -0.12)">
     <use xlink:href="#DejaVuSans-Bold-58"/>
     <use xlink:href="#DejaVuSans-Bold-56" x="77.099609"/>
     <use xlink:href="#DejaVuSans-Bold-49" x="154.492188"/>
     <use xlink:href="#DejaVuSans-Bold-49" x="191.699219"/>
     <use xlink:href="#DejaVuSans-Bold-49" x="228.90625"/>
    </g>
   </g>
   <g id="text_38">
    <!-- ☾ -->
    <g style="fill: #222222" transform="translate(392.696394 467.837475) rotate(-32.727273) scale(0.18 -0.18)">
     <defs>
      <path id="DejaVuSans-263e" d="M 2947 0 
Q 1713 0 859 1178 
Q 531 1719 531 2338 
Q 531 3563 1769 4366 
Q 2328 4675 2881 4675 
L 3034 4675 
Q 3178 4675 3428 4628 
L 3428 4606 
Q 2566 4359 2172 3806 
Q 1691 3172 1691 2338 
Q 1691 1088 2734 384 
Q 3159 138 3450 88 
L 3450 75 
Q 3450 44 2984 0 
L 2947 0 
z
M 2859 194 
L 2859 203 
Q 1431 819 1431 2359 
Q 1431 3613 2481 4338 
L 2619 4413 
L 2619 4422 
L 2600 4422 
Q 2331 4422 1834 4163 
Q 1109 3694 850 2928 
Q 763 2641 763 2347 
L 763 2319 
Q 763 1325 1844 513 
Q 2356 194 2850 194 
L 2859 194 
z
" transform="scale(0.015625)"/>
     </defs>
     <use xlink:href="#DejaVuSans-263e"/>
    </g>
   </g>
   <g id="text_39">
    <!-- XIX -->
    <g style="fill: #222222" transform="translate(467.926827 458.621667) rotate(-49.090909) scale(0.12 -0.12)">
     <use xlink:href="#DejaVuSans-Bold-58"/>
     <use xlink:href="#DejaVuSans-Bold-49" x="77.099609"/>
     <use xlink:href="#DejaVuSans-Bold-58" x="114.306641"/>
    </g>
   </g>
   <g id="text_40">
    <!-- ☉ -->
    <g style="fill: #222222" transform="translate(439.989938 429.896349) rotate(-49.090909) scale(0.18 -0.18)">
     <defs>
      <path id="DejaVuSans-2609" d="M 5206 2338 
Q 5206 1366 4522 683 
Q 3838 0 2866 0 
Q 1900 0 1215 683 
Q 531 1366 531 2338 
Q 531 2944 845 3508 
Q 1159 4072 1721 4373 
Q 2284 4675 2866 4675 
Q 3456 4675 4018 4373 
Q 4581 4072 4893 3511 
Q 5206 2950 5206 2338 
z
M 759 2338 
Q 759 1463 1375 848 
Q 1991 234 2866 234 
Q 3741 234 4356 848 
Q 4972 1463 4972 2338 
Q 4972 2891 4690 3394 
Q 4409 3897 3903 4169 
Q 3397 4441 2865 4441 
Q 2334 4441 1828 4169 
Q 1322 3897 1040 3394 
Q 759 2891 759 2338 
z
M 3453 2338 
Q 3453 2094 3283 1923 
Q 3113 1753 2869 1753 
Q 2628 1753 2456 1923 
Q 2284 2094 2284 2338 
Q 2284 2491 2362 2631 
Q 2441 2772 2581 2847 
Q 2722 2922 2869 2922 
Q 3016 2922 3156 2847 
Q 3297 2772 3375 2631 
Q 3453 2491 3453 2338 
z
" transform="scale(0.015625)"/>
     </defs>
     <use xlink:href="#DejaVuSans-2609"/>
    </g>
   </g>
   <g id="text_41">
    <!-- XX -->
    <g style="fill: #222222" transform="translate(510.503901 397.828513) rotate(-65.454545) scale(0.12 -0.12)">
     <use xlink:href="#DejaVuSans-Bold-58"/>
     <use xlink:href="#DejaVuSans-Bold-58" x="77.099609"/>
    </g>
   </g>
   <g id="text_42">
    <!-- ♃ -->
    <g style="fill: #222222" transform="translate(474.678511 380.167973) rotate(-65.454545) scale(0.18 -0.18)">
     <use xlink:href="#DejaVuSans-2643"/>
    </g>
   </g>
   <g id="text_43">
    <!-- XXI -->
    <g style="fill: #222222" transform="translate(532.983936 331.742499) rotate(-81.818182) scale(0.12 -0.12)">
     <use xlink:href="#DejaVuSans-Bold-58"/>
     <use xlink:href="#DejaVuSans-Bold-58" x="77.099609"/>
     <use xlink:href="#DejaVuSans-Bold-49" x="154.199219"/>
    </g>
   </g>
   <g id="text_44">
    <!-- ♄ -->
    <g style="fill: #222222" transform="translate(493.95185 322.681046) rotate(-81.818182) scale(0.18 -0.18)">
     <use xlink:href="#DejaVuSans-2644"/>
    </g>
   </g>
  </g>
 </g>
 <defs>
  <clipPath id="p5e6113ff97">
   <path d="M 561.6 284.4 
C 561.6 247.99843 554.429684 211.950818 540.499406 178.320153 
C 526.569128 144.689487 506.149797 114.129798 480.41 88.39 
C 454.670202 62.650203 424.110513 42.230872 390.479847 28.300594 
C 356.849182 14.370316 320.80157 7.2 284.4 7.2 
C 247.99843 7.2 211.950818 14.370316 178.320153 28.300594 
C 144.689487 42.230872 114.129798 62.650203 88.39 88.39 
C 62.650203 114.129798 42.230872 144.689487 28.300594 178.320153 
C 14.370316 211.950818 7.2 247.99843 7.2 284.4 
C 7.2 320.80157 14.370316 356.849182 28.300594 390.479847 
C 42.230872 424.110513 62.650203 454.670202 88.39 480.41 
C 114.129798 506.149797 144.689487 526.569128 178.320153 540.499406 
C 211.950818 554.429684 247.99843 561.6 284.4 561.6 
C 320.80157 561.6 356.849182 554.429684 390.479847 540.499406 
C 424.110513 526.569128 454.670202 506.149797 480.41 480.41 
C 506.149797 454.670202 526.569128 424.110513 540.499406 390.479847 
C 554.429684 356.849182 561.6 320.80157 561.6 284.4 
M 284.4 284.4 
C 284.4 284.4 284.4 284.4 284.4 284.4 
C 284.4 284.4 284.4 284.4 284.4 284.4 
C 284.4 284.4 284.4 284.4 284.4 284.4 
C 284.4 284.4 284.4 284.4 284.4 284.4 
C 284.4 284.4 284.4 284.4 284.4 284.4 
C 284.4 284.4 284.4 284.4 284.4 284.4 
C 284.4 284.4 284.4 284.4 284.4 284.4 
C 284.4 284.4 284.4 284.4 284.4 284.4 
C 284.4 284.4 284.4 284.4 284.4 284.4 
C 284.4 284.4 284.4 284.4 284.4 284.4 
C 284.4 284.4 284.4 284.4 284.4 284.4 
C 284.4 284.4 284.4 284.4 284.4 284.4 
C 284.4 284.4 284.4 284.4 284.4 284.4 
C 284.4 284.4 284.4 284.4 284.4 284.4 
C 284.4 284.4 284.4 284.4 284.4 284.4 
C 284.4 284.4 284.4 284.4 284.4 284.4 
M 561.6 284.4 
z
"/>
  </clipPath>
 </defs>
</svg>
